<svg width="136" height="72" viewBox="0 0 136 72" fill="#0cb452" xmlns="http://www.w3.org/2000/svg">
<path d="M129.577 23.2928C130.49 24.4395 131.221 25.3568 131.947 26.3849C136.673 32.9014 136.923 40.8997 132.888 48.0578C130.922 51.5281 128.318 54.1957 125.44 56.5193C118.794 61.7959 111.458 65.1583 103.697 67.172C79.0544 73.6017 54.509 72.9347 30.1114 66.2826C23.6538 64.5773 17.4239 61.9936 11.636 57.9857C8.4636 55.7485 5.5922 53.1907 3.53254 49.5565C0.029872 43.6446 -0.105292 37.537 2.93539 31.226C4.93208 26.9804 7.94226 23.7746 11.3222 20.9167C17.2884 15.8343 23.7755 12.1044 30.7056 9.28021C55.807 -1.34673 81.2916 -2.52759 107.022 4.40067C114.05 6.2402 120.645 9.28251 126.588 14.1844C127.794 15.232 128.999 16.2796 130.099 17.5448C132.304 19.9645 132.177 20.736 129.577 23.2928ZM106.974 10.2789C106.979 10.1682 106.983 10.0574 106.992 9.83586C105.473 9.44112 104.053 8.93951 102.534 8.54477C82.2847 3.72588 62.1112 4.12456 41.9907 10.2946C33.2444 12.9339 24.7404 16.6926 17.1136 22.484C14.2398 24.6968 11.357 27.1311 9.03119 30.0319C3.66808 36.8031 3.95429 43.9154 9.95299 49.818C12.5369 52.3641 15.6225 54.3759 18.7172 56.1662C25.381 59.8769 32.5004 61.8311 39.7337 63.3462C57.0616 66.8257 74.5112 67.3146 91.9959 64.5874C101.368 63.0831 110.502 60.3487 118.973 55.0354C122.422 52.846 125.693 50.3165 128.141 46.755C132.318 40.8231 132.197 34.3832 127.718 28.8754C126.348 27.1554 124.778 25.6491 123.107 24.2497C115.306 17.8298 106.497 14.9192 97.0013 14.7543C94.989 14.6724 92.8717 14.808 90.8548 14.8368C89.6091 14.7861 88.5775 14.1893 88.5449 12.6347C88.5032 11.3017 89.4017 10.4507 90.5562 10.3868C92.5821 10.1365 94.617 9.66461 96.6339 9.63582C100.088 9.66558 103.529 10.0276 106.974 10.2789Z" fill="#0cb452"/>
</svg>
