<svg width="125" height="10" viewBox="0 0 125 10" fill="#0cb452" xmlns="http://www.w3.org/2000/svg">
<path d="M3.5201 3.79138C4.49098 3.81999 5.50952 3.79385 6.48183 3.76636C6.89792 3.77862 7.26922 3.73342 7.68531 3.74568C9.44501 3.68524 11.2047 3.62481 12.9644 3.56437C15.094 3.51483 17.1787 3.40784 19.3083 3.3583C22.3191 3.22245 25.3285 3.14269 28.3394 3.00684C29.0343 2.97117 29.7278 2.9916 30.4227 2.95594C32.1824 2.8955 33.9421 2.83507 35.7003 2.83073C37.46 2.77029 39.2197 2.70986 40.978 2.70552C41.6729 2.66985 42.3678 2.63419 43.0613 2.65462C45.8381 2.62414 48.6612 2.59503 51.438 2.56456C53.15 2.55886 54.862 2.55316 56.6217 2.49273C57.3152 2.51316 57.9639 2.47613 58.6574 2.49656C61.3403 2.51946 64.0694 2.54372 66.7523 2.56662C69.4352 2.58952 72.0719 2.61106 74.7548 2.63396C75.4483 2.65439 76.1417 2.67482 76.8815 2.69661C78.6383 2.74837 80.3489 2.79876 82.1057 2.85052C84.8334 2.93087 87.5148 3.00987 90.244 3.03413C91.1224 3.06001 92.0008 3.08589 92.8792 3.11177C94.7285 3.16625 96.5778 3.22072 98.4271 3.2752C98.5658 3.27929 98.7507 3.28474 98.8894 3.28882C94.7271 3.22234 90.5185 3.15449 86.3547 3.14411C84.5965 3.14845 82.8859 3.09805 81.1276 3.10239C80.3879 3.0806 79.602 3.05745 78.8608 3.09175C76.3166 3.07293 73.8172 3.11158 71.273 3.09276C68.3575 3.11915 65.4434 3.08944 62.5279 3.11582C62.0194 3.10084 61.5556 3.14332 61.0471 3.12834C59.4723 3.19422 57.9452 3.20537 56.3704 3.27125C53.2223 3.34692 50.0742 3.42259 46.9261 3.49826C46.4638 3.48464 46 3.52712 45.5363 3.56959C44.0077 3.63684 42.4315 3.75882 40.903 3.82606C38.1233 3.96872 35.3899 4.11275 32.6102 4.25541C31.869 4.28971 31.0802 4.37875 30.3391 4.41305C28.5779 4.52959 26.8168 4.64612 25.0542 4.81874C22.8293 4.97775 20.5582 5.13539 18.3333 5.2944C15.2271 5.53972 12.0747 5.78367 8.9685 6.02899C8.22735 6.0633 7.48476 6.15369 6.69737 6.18664C5.35233 6.31542 4.00728 6.44421 2.66223 6.573C2.52353 6.56891 2.38196 6.67702 2.37621 6.9014C2.37189 7.06969 2.50627 7.24206 2.64497 7.24615C3.15352 7.26113 3.6144 7.33084 4.12296 7.34582C4.0233 7.62358 3.97275 7.7905 3.96844 7.95879C3.95261 8.57584 4.35432 9.14905 4.9091 9.16539C8.75356 8.99796 12.5532 8.77307 16.3963 8.66174C19.7293 8.59152 23.0637 8.4652 26.3968 8.39497C30.0549 8.27819 33.7592 8.16277 37.4158 8.10208C38.5731 8.08003 39.7303 8.05799 40.889 7.97985C41.2126 7.98938 41.5377 7.94282 41.9076 7.95372C47.8296 7.95976 53.753 7.90972 59.6751 7.91577C62.8217 7.89619 66.0146 7.87798 69.1599 7.9145C70.3171 7.89245 71.4267 7.92514 72.5839 7.9031C78.6432 7.96933 84.7025 8.03556 90.7618 8.10179C93.3522 8.12196 95.9426 8.14214 98.5331 8.16232C100.754 8.1716 102.973 8.23697 105.195 8.19016C107.046 8.18854 108.851 8.12947 110.702 8.12785C111.628 8.099 112.553 8.12624 113.433 8.09602C115.518 7.98902 117.602 7.88203 119.687 7.77503C119.543 7.99532 119.534 8.3319 119.574 8.55764C119.613 8.83948 119.746 9.06795 119.975 9.18695C120.157 9.30459 120.431 9.42495 120.619 9.31821C121.087 9.10745 121.555 8.89668 121.977 8.68456C121.977 8.68456 121.977 8.68456 121.931 8.6832C121.977 8.68456 121.979 8.62846 122.025 8.62983C122.071 8.63119 122.119 8.57645 122.119 8.57645L122.072 8.57509C122.306 8.46971 122.54 8.36433 122.822 8.20422C123.056 8.09884 123.338 7.93872 123.572 7.83334C123.854 7.67323 124.089 7.51175 124.371 7.35164C124.653 7.19152 124.849 6.74821 124.859 6.35554C124.865 6.13116 124.823 5.96151 124.736 5.7344C124.65 5.5073 124.426 5.22001 124.196 5.15711C123.966 5.0942 123.736 5.0313 123.505 5.02449C123.459 5.02312 123.413 5.02176 123.367 5.0204C123.228 5.01631 123.043 5.01087 122.903 5.06287C122.531 5.10807 122.206 5.15464 121.837 5.14374C121.559 5.13557 121.28 5.18349 120.957 5.17396C120.169 5.2069 119.428 5.2412 118.639 5.33024C118.454 5.32479 118.222 5.37408 118.037 5.36863C118.132 5.25916 118.181 5.14833 118.184 5.03614C118.233 4.92531 118.236 4.81312 118.239 4.70093C118.241 4.64484 118.243 4.53264 118.291 4.47791C118.294 4.36572 118.297 4.25353 118.252 4.19607C118.252 4.19607 118.298 4.19743 118.3 4.14134C118.441 4.03323 118.583 3.92513 118.681 3.70347C118.778 3.53791 118.83 3.31489 118.836 3.09051C118.841 2.86613 118.799 2.69648 118.713 2.46937C118.668 2.41192 118.625 2.29836 118.58 2.24091C118.445 2.06853 118.308 2.00835 118.171 1.94817C117.896 1.82781 117.574 1.76218 117.251 1.75264C116.973 1.74447 116.742 1.73766 116.465 1.72949C116.095 1.71859 115.725 1.7077 115.355 1.6968C114.846 1.68182 114.292 1.66548 113.783 1.65049C112.396 1.60964 111.009 1.56878 109.622 1.52792C108.328 1.48978 106.987 1.45028 105.693 1.41215C104.49 1.37673 103.335 1.34268 102.133 1.30727C97.3707 1.16699 92.6536 1.08416 87.8903 0.999969C84.3289 0.951191 80.7676 0.902413 77.2078 0.797539C75.6359 0.751231 74.0163 0.759657 72.443 0.769445C68.8802 0.776762 65.3189 0.727984 61.7562 0.735301C60.7391 0.705337 59.7205 0.731469 58.7034 0.701505C58.1024 0.683799 57.5462 0.72355 56.9451 0.705844C53.4272 0.770619 49.9092 0.835394 46.3913 0.900168C45.3265 0.924938 44.2617 0.949707 43.1507 0.973115C42.5497 0.955409 41.9472 0.993799 41.3448 1.03219C37.8254 1.15306 34.3522 1.27529 30.8328 1.39616C29.0269 1.45523 27.221 1.51431 25.4136 1.62947C22.3103 1.7626 19.207 1.89573 16.1485 2.08632C13.4612 2.2317 10.7755 2.32099 8.08969 2.41028C7.67216 2.45412 7.25607 2.44186 6.79231 2.48434C6.09739 2.52 5.40391 2.49957 4.70899 2.53524C4.10222 2.74192 3.45497 2.72285 2.85395 2.70514C2.81347 2.4794 2.63286 2.30566 2.49273 2.35767C2.07664 2.34542 1.70534 2.39061 1.28781 2.43445C1.10145 2.4851 0.91364 2.59184 0.861654 2.81486C0.808229 3.09398 0.939733 3.37854 1.12322 3.44008C1.30671 3.50163 1.4902 3.56317 1.67369 3.62471C1.85718 3.68626 1.99588 3.69034 2.18081 3.69579C2.64169 3.76551 3.05778 3.77776 3.5201 3.79138ZM111.749 5.1834C112.304 5.19974 112.905 5.21745 113.46 5.23379C113.502 5.40344 113.591 5.51835 113.681 5.63327C113.45 5.62646 113.217 5.67574 113.032 5.6703C112.616 5.65804 112.199 5.70188 111.783 5.68962C109.932 5.69123 108.126 5.75031 106.275 5.75192C105.442 5.7835 104.608 5.81508 103.776 5.79057C102.481 5.75243 101.139 5.76903 99.8446 5.73089C96.8381 5.69846 93.8778 5.66739 90.8713 5.63495C85.0432 5.57553 79.2613 5.51747 73.4332 5.45805C69.2708 5.39157 65.1056 5.43727 60.9404 5.48298C54.6933 5.52349 48.4014 5.50655 42.1543 5.54706C40.9046 5.56638 39.6549 5.5857 38.4038 5.66112C34.8382 5.78063 31.274 5.84404 27.7083 5.96355C24.2352 6.08578 20.7172 6.15056 17.2441 6.27279C16.9204 6.26325 16.5954 6.30982 16.2717 6.30028C17.1993 6.21533 18.1716 6.18784 19.0991 6.10289C22.3888 5.91911 25.6799 5.67924 28.9696 5.49546C30.1282 5.41732 31.2869 5.33918 32.3994 5.25968C33.0018 5.22129 33.6043 5.1829 34.1591 5.19924C37.6322 5.07701 41.0606 4.89732 44.4875 4.77373C45.1362 4.7367 45.8311 4.70104 46.4798 4.66401C47.4521 4.63652 48.4244 4.60902 49.3491 4.63626C52.867 4.57149 56.385 4.50671 59.903 4.44194C60.6903 4.409 61.4763 4.43215 62.2174 4.39785C62.4024 4.40329 62.6335 4.4101 62.8185 4.41555C63.3732 4.4319 63.928 4.44824 64.438 4.40713C67.9545 4.39845 71.5159 4.44723 75.0324 4.43855C76.6519 4.43012 78.2715 4.42169 79.8896 4.46936C85.1153 4.56717 90.3872 4.66635 95.6129 4.76416C101.068 4.92487 106.433 5.02677 111.749 5.1834Z" fill="#0cb452"/>
</svg>
