<?xml version="1.0" encoding="UTF-8"?>
<svg fill="none" viewBox="0 0 465 363" xmlns="http://www.w3.org/2000/svg">
<mask id="a" x="0" y="0" width="465" height="363" style="mask-type:luminance" maskUnits="userSpaceOnUse">
<path d="M258.09 55.405h206.731V0H180.093c-15.981.134-28.923 1.232-38.823 3.293-9.29 1.448-19.551 5.06-30.782 10.838-14.895 8.941-24.582 20.986-29.058 36.135-4.396 13.031-5.38 29.608-2.95 49.732 4.149 20.728 19.269 43.842 45.361 69.337a427162.61 427162.61 0 0092.122 89.741c3.442 3.351 6.263 6.237 8.464 8.656 10.591 11.327 13.319 21.517 8.184 30.57-3.155 5.619-10.561 8.537-22.218 8.755l-210.37.002v55.401l289.853-.086c20.075-.187 38.199-3.517 54.373-9.99 21.779-9.19 35.143-25.581 40.093-49.172 2.742-14.439 2.913-28.624.515-42.557-3.519-17.366-15.555-36.772-36.106-58.217l-31.637-32.615-54.146-51.946c-12.307-11.392-21.177-20.295-26.61-26.709-6.8-6.769-9.066-14.933-6.798-24.49 1.704-5.118 5.558-8.43 11.562-9.936 2.769-.943 8.426-1.39 16.97-1.34l-.002.003z" fill="#fff"/>
</mask>
<g mask="url(#a)">
<path d="m94.005 20.379-225.8 195.34 277.45 320.74 225.8-195.34-277.45-320.74z" fill="#01923F"/>
<path d="m318.52-173.14-229.3 198.37 275.76 318.78 229.3-198.37-275.76-318.78z" fill="#10108A"/>
</g>
</svg>